<svg width="250" height="250" viewBox="0 0 250 250" fill="none" xmlns="http://www.w3.org/2000/svg">
  <rect width="250" height="250" fill="#F3F4F6"/>
  <path d="M125 125.5C135.493 125.5 144 116.993 144 106.5C144 96.0066 135.493 87.5 125 87.5C114.507 87.5 106 96.0066 106 106.5C106 116.993 114.507 125.5 125 125.5Z" fill="#D1D5DB"/>
  <path d="M166.25 154.75C166.25 177.137 148.137 195.25 125.75 195.25C103.363 195.25 85.25 177.137 85.25 154.75C85.25 142.777 90.2402 132.05 98.3 124.5C98.3 124.5 104.5 131.5 124.75 131.5C145 131.5 151.7 124.5 151.7 124.5C159.76 132.05 166.25 142.777 166.25 154.75Z" fill="#D1D5DB"/>
  <path d="M125 62.5C156.5 62.5 181.25 87.2471 181.25 118.75C181.25 142.25 167.5 162.5 147.5 171.25C140 174.75 137.5 167.5 125 167.5C112.5 167.5 110 174.75 102.5 171.25C82.5 162.5 68.75 142.25 68.75 118.75C68.75 87.2471 93.5 62.5 125 62.5Z" stroke="#9CA3AF" stroke-width="5" stroke-linecap="round" stroke-linejoin="round"/>
  <path d="M106.25 93.75C106.25 93.75 112.5 106.25 125 106.25C137.5 106.25 143.75 93.75 143.75 93.75" stroke="#9CA3AF" stroke-width="5" stroke-linecap="round" stroke-linejoin="round"/>
  <rect x="145" y="165" width="20" height="20" rx="5" fill="#4CAF50" stroke="#4CAF50" stroke-width="2"/>
  <path d="M148 175L152 179L161 170" stroke="white" stroke-width="2" stroke-linecap="round" stroke-linejoin="round"/>
</svg>